#N canvas 8 217 441 585 10;
#X obj 96 92 notein;
#X floatatom 304 195 5 0 0 0 - - -;
#X floatatom 191 205 5 0 0 0 - - -;
#X floatatom 39 167 5 0 0 0 - - -;
#X obj 43 229 - 3;
#X floatatom 42 286 5 0 0 0 - - -;
#X obj 60 394 noteout;
#X floatatom 109 198 5 0 0 0 - - -;
#X text 179 93 Input from the MIDI device;
#X text 147 395 Output to the same MIDI device;
#X text 16 9 MIDI Pythagorizer;
#X obj 266 333 bendout;
#X floatatom 249 292 5 0 0 0 - - -;
#X connect 0 0 3 0;
#X connect 0 1 2 0;
#X connect 0 2 1 0;
#X connect 1 0 6 2;
#X connect 1 0 11 1;
#X connect 2 0 6 1;
#X connect 3 0 4 0;
#X connect 4 0 5 0;
#X connect 5 0 6 0;
#X connect 7 0 4 1;
#X connect 12 0 11 0;
