#N canvas 302 100 627 637 10;
#X obj 181 108 notein;
#X floatatom 429 239 5 0 0 0 - - -;
#X floatatom 360 236 5 0 0 0 - - -;
#X floatatom 150 281 5 0 0 0 - - -;
#X obj 159 334 - 3;
#X floatatom 174 371 5 0 0 0 - - -;
#X obj 197 540 noteout;
#X floatatom 210 298 5 0 0 0 - - -;
#X obj 383 495 bendout;
#X floatatom 356 459 5 0 0 0 - - -;
#X text 38 25 Music randomizer;
#X obj 216 245 random 5;
#X obj 177 439 makenote;
#X floatatom 242 201 5 0 0 0 - - -;
#X text 374 171 <-- Convert to bang event;
#X text 287 98 <-- Input from the MIDI device;
#X text 272 529 <-- Output to the same MIDI device;
#X obj 114 374 tgl 15 0 empty empty empty 17 7 0 10 -262144 -1 -1 0
1;
#X text 14 377 Bypass -->;
#X obj 128 434 == 0;
#X obj 110 491 spigot;
#X obj 38 508 spigot;
#X obj 202 185 t b;
#X connect 0 0 21 0;
#X connect 0 0 3 0;
#X connect 0 0 22 0;
#X connect 0 1 2 0;
#X connect 0 2 1 0;
#X connect 1 0 8 1;
#X connect 1 0 6 2;
#X connect 2 0 12 1;
#X connect 3 0 4 0;
#X connect 4 0 5 0;
#X connect 5 0 12 0;
#X connect 7 0 4 1;
#X connect 9 0 8 0;
#X connect 11 0 7 0;
#X connect 12 0 20 0;
#X connect 12 1 6 1;
#X connect 13 0 11 1;
#X connect 17 0 19 0;
#X connect 17 0 21 1;
#X connect 19 0 20 1;
#X connect 20 0 6 0;
#X connect 21 0 6 0;
#X connect 22 0 11 0;
